<?xml version="1.0" encoding="UTF-8"?>
<svg xmlns="http://www.w3.org/2000/svg" xmlns:xlink="http://www.w3.org/1999/xlink" width="320.506pt" height="41.422pt" viewBox="0 0 320.506 41.422">
<defs>
<g>
<g id="glyph-0-0">
<path d="M 2.21875 -5.953125 C 2.21875 -6.296875 2.234375 -6.40625 3.015625 -6.40625 L 3.265625 -6.40625 L 3.265625 -6.71875 C 2.921875 -6.6875 2.15625 -6.6875 1.78125 -6.6875 C 1.390625 -6.6875 0.625 -6.6875 0.28125 -6.71875 L 0.28125 -6.40625 L 0.53125 -6.40625 C 1.3125 -6.40625 1.34375 -6.296875 1.34375 -5.953125 L 1.34375 -0.765625 C 1.34375 -0.40625 1.3125 -0.296875 0.53125 -0.296875 L 0.28125 -0.296875 L 0.28125 0 C 0.625 -0.03125 1.390625 -0.03125 1.765625 -0.03125 C 2.15625 -0.03125 2.921875 -0.03125 3.265625 0 L 3.265625 -0.296875 L 3.015625 -0.296875 C 2.234375 -0.296875 2.21875 -0.40625 2.21875 -0.765625 Z M 2.21875 -5.953125 "/>
</g>
<g id="glyph-0-1">
<path d="M 1.078125 -3.375 L 1.078125 -0.75 C 1.078125 -0.296875 0.96875 -0.296875 0.3125 -0.296875 L 0.3125 0 C 0.65625 -0.015625 1.15625 -0.03125 1.421875 -0.03125 C 1.6875 -0.03125 2.1875 -0.015625 2.53125 0 L 2.53125 -0.296875 C 1.875 -0.296875 1.765625 -0.296875 1.765625 -0.75 L 1.765625 -2.5625 C 1.765625 -3.578125 2.453125 -4.125 3.09375 -4.125 C 3.703125 -4.125 3.8125 -3.59375 3.8125 -3.03125 L 3.8125 -0.75 C 3.8125 -0.296875 3.703125 -0.296875 3.046875 -0.296875 L 3.046875 0 C 3.390625 -0.015625 3.890625 -0.03125 4.15625 -0.03125 C 4.40625 -0.03125 4.921875 -0.015625 5.265625 0 L 5.265625 -0.296875 C 4.75 -0.296875 4.5 -0.296875 4.484375 -0.59375 L 4.484375 -2.484375 C 4.484375 -3.328125 4.484375 -3.625 4.1875 -3.984375 C 4.046875 -4.140625 3.71875 -4.34375 3.15625 -4.34375 C 2.4375 -4.34375 1.96875 -3.921875 1.703125 -3.3125 L 1.703125 -4.34375 L 0.3125 -4.234375 L 0.3125 -3.9375 C 1 -3.9375 1.078125 -3.859375 1.078125 -3.375 Z M 1.078125 -3.375 "/>
</g>
<g id="glyph-0-2">
<path d="M 1.6875 -3.703125 L 1.6875 -4.34375 L 0.28125 -4.234375 L 0.28125 -3.9375 C 0.96875 -3.9375 1.046875 -3.875 1.046875 -3.4375 L 1.046875 1.15625 C 1.046875 1.609375 0.9375 1.609375 0.28125 1.609375 L 0.28125 1.90625 C 0.609375 1.890625 1.125 1.875 1.375 1.875 C 1.640625 1.875 2.140625 1.890625 2.484375 1.90625 L 2.484375 1.609375 C 1.828125 1.609375 1.71875 1.609375 1.71875 1.15625 L 1.71875 -0.578125 C 1.765625 -0.421875 2.1875 0.109375 2.921875 0.109375 C 4.09375 0.109375 5.125 -0.859375 5.125 -2.125 C 5.125 -3.375 4.171875 -4.34375 3.0625 -4.34375 C 2.296875 -4.34375 1.890625 -3.90625 1.6875 -3.703125 Z M 1.71875 -1.125 L 1.71875 -3.3125 C 2 -3.8125 2.484375 -4.09375 2.984375 -4.09375 C 3.703125 -4.09375 4.3125 -3.234375 4.3125 -2.125 C 4.3125 -0.9375 3.609375 -0.109375 2.890625 -0.109375 C 2.5 -0.109375 2.125 -0.296875 1.859375 -0.703125 C 1.71875 -0.90625 1.71875 -0.921875 1.71875 -1.125 Z M 1.71875 -1.125 "/>
</g>
<g id="glyph-0-3">
<path d="M 3.84375 -0.78125 L 3.84375 0.109375 L 5.265625 0 L 5.265625 -0.296875 C 4.5625 -0.296875 4.484375 -0.375 4.484375 -0.859375 L 4.484375 -4.34375 L 3.046875 -4.234375 L 3.046875 -3.9375 C 3.734375 -3.9375 3.8125 -3.859375 3.8125 -3.375 L 3.8125 -1.625 C 3.8125 -0.78125 3.34375 -0.109375 2.625 -0.109375 C 1.796875 -0.109375 1.765625 -0.5625 1.765625 -1.078125 L 1.765625 -4.34375 L 0.3125 -4.234375 L 0.3125 -3.9375 C 1.078125 -3.9375 1.078125 -3.90625 1.078125 -3.03125 L 1.078125 -1.546875 C 1.078125 -0.78125 1.078125 0.109375 2.578125 0.109375 C 3.125 0.109375 3.5625 -0.171875 3.84375 -0.78125 Z M 3.84375 -0.78125 "/>
</g>
<g id="glyph-0-4">
<path d="M 1.703125 -3.9375 L 3.109375 -3.9375 L 3.109375 -4.234375 L 1.703125 -4.234375 L 1.703125 -6.046875 L 1.453125 -6.046875 C 1.4375 -5.234375 1.15625 -4.1875 0.1875 -4.140625 L 0.1875 -3.9375 L 1.015625 -3.9375 L 1.015625 -1.21875 C 1.015625 -0.015625 1.9375 0.109375 2.296875 0.109375 C 2.984375 0.109375 3.265625 -0.59375 3.265625 -1.21875 L 3.265625 -1.78125 L 3.015625 -1.78125 L 3.015625 -1.234375 C 3.015625 -0.515625 2.71875 -0.140625 2.359375 -0.140625 C 1.703125 -0.140625 1.703125 -1.03125 1.703125 -1.203125 Z M 1.703125 -3.9375 "/>
</g>
<g id="glyph-0-5">
<path d="M 7.09375 -3.328125 C 7.09375 -5.34375 5.609375 -6.921875 3.8125 -6.921875 C 2.046875 -6.921875 0.546875 -5.359375 0.546875 -3.328125 C 0.546875 -1.3125 2.0625 0.21875 3.8125 0.21875 C 5.609375 0.21875 7.09375 -1.34375 7.09375 -3.328125 Z M 3.828125 -0.046875 C 2.875 -0.046875 1.5625 -0.90625 1.5625 -3.46875 C 1.5625 -6.015625 3 -6.6875 3.8125 -6.6875 C 4.671875 -6.6875 6.078125 -5.984375 6.078125 -3.46875 C 6.078125 -0.859375 4.734375 -0.046875 3.828125 -0.046875 Z M 3.828125 -0.046875 "/>
</g>
<g id="glyph-0-6">
<path d="M 1.09375 -2.484375 C 1.15625 -3.9375 1.984375 -4.1875 2.3125 -4.1875 C 3.328125 -4.1875 3.4375 -2.859375 3.4375 -2.484375 Z M 1.09375 -2.265625 L 3.828125 -2.265625 C 4.046875 -2.265625 4.078125 -2.265625 4.078125 -2.484375 C 4.078125 -3.453125 3.546875 -4.40625 2.3125 -4.40625 C 1.171875 -4.40625 0.28125 -3.390625 0.28125 -2.15625 C 0.28125 -0.84375 1.3125 0.109375 2.4375 0.109375 C 3.640625 0.109375 4.078125 -0.984375 4.078125 -1.171875 C 4.078125 -1.265625 4 -1.28125 3.953125 -1.28125 C 3.859375 -1.28125 3.84375 -1.234375 3.828125 -1.15625 C 3.484375 -0.140625 2.59375 -0.140625 2.5 -0.140625 C 2 -0.140625 1.609375 -0.4375 1.390625 -0.796875 C 1.09375 -1.265625 1.09375 -1.921875 1.09375 -2.265625 Z M 1.09375 -2.265625 "/>
</g>
<g id="glyph-0-7">
<path d="M 4.625 -2.109375 C 4.625 -3.359375 3.640625 -4.40625 2.453125 -4.40625 C 1.234375 -4.40625 0.28125 -3.328125 0.28125 -2.109375 C 0.28125 -0.828125 1.296875 0.109375 2.453125 0.109375 C 3.640625 0.109375 4.625 -0.859375 4.625 -2.109375 Z M 2.453125 -0.140625 C 2.03125 -0.140625 1.609375 -0.34375 1.34375 -0.796875 C 1.09375 -1.234375 1.09375 -1.828125 1.09375 -2.1875 C 1.09375 -2.5625 1.09375 -3.09375 1.328125 -3.53125 C 1.59375 -3.984375 2.046875 -4.1875 2.453125 -4.1875 C 2.875 -4.1875 3.296875 -3.96875 3.5625 -3.546875 C 3.8125 -3.125 3.8125 -2.5625 3.8125 -2.1875 C 3.8125 -1.828125 3.8125 -1.296875 3.59375 -0.859375 C 3.375 -0.421875 2.953125 -0.140625 2.453125 -0.140625 Z M 2.453125 -0.140625 "/>
</g>
<g id="glyph-0-8">
<path d="M 1.640625 -3.265625 L 1.640625 -4.34375 L 0.28125 -4.234375 L 0.28125 -3.9375 C 0.96875 -3.9375 1.046875 -3.859375 1.046875 -3.375 L 1.046875 -0.75 C 1.046875 -0.296875 0.9375 -0.296875 0.28125 -0.296875 L 0.28125 0 C 0.65625 -0.015625 1.125 -0.03125 1.390625 -0.03125 C 1.78125 -0.03125 2.25 -0.03125 2.640625 0 L 2.640625 -0.296875 L 2.4375 -0.296875 C 1.703125 -0.296875 1.6875 -0.40625 1.6875 -0.765625 L 1.6875 -2.28125 C 1.6875 -3.25 2.109375 -4.125 2.84375 -4.125 C 2.921875 -4.125 2.9375 -4.125 2.953125 -4.125 C 2.921875 -4.109375 2.734375 -3.984375 2.734375 -3.734375 C 2.734375 -3.453125 2.9375 -3.3125 3.15625 -3.3125 C 3.328125 -3.3125 3.578125 -3.4375 3.578125 -3.75 C 3.578125 -4.0625 3.265625 -4.34375 2.84375 -4.34375 C 2.125 -4.34375 1.78125 -3.6875 1.640625 -3.265625 Z M 1.640625 -3.265625 "/>
</g>
<g id="glyph-0-9">
<path d="M 1.078125 -3.375 L 1.078125 -0.75 C 1.078125 -0.296875 0.96875 -0.296875 0.3125 -0.296875 L 0.3125 0 C 0.65625 -0.015625 1.15625 -0.03125 1.421875 -0.03125 C 1.6875 -0.03125 2.1875 -0.015625 2.53125 0 L 2.53125 -0.296875 C 1.875 -0.296875 1.765625 -0.296875 1.765625 -0.75 L 1.765625 -2.5625 C 1.765625 -3.578125 2.453125 -4.125 3.09375 -4.125 C 3.703125 -4.125 3.8125 -3.59375 3.8125 -3.03125 L 3.8125 -0.75 C 3.8125 -0.296875 3.703125 -0.296875 3.046875 -0.296875 L 3.046875 0 C 3.390625 -0.015625 3.890625 -0.03125 4.15625 -0.03125 C 4.40625 -0.03125 4.921875 -0.015625 5.265625 0 L 5.265625 -0.296875 C 4.59375 -0.296875 4.484375 -0.296875 4.484375 -0.75 L 4.484375 -2.5625 C 4.484375 -3.578125 5.1875 -4.125 5.8125 -4.125 C 6.4375 -4.125 6.546875 -3.59375 6.546875 -3.03125 L 6.546875 -0.75 C 6.546875 -0.296875 6.4375 -0.296875 5.78125 -0.296875 L 5.78125 0 C 6.125 -0.015625 6.625 -0.03125 6.890625 -0.03125 C 7.140625 -0.03125 7.65625 -0.015625 7.984375 0 L 7.984375 -0.296875 C 7.484375 -0.296875 7.234375 -0.296875 7.21875 -0.59375 L 7.21875 -2.484375 C 7.21875 -3.328125 7.21875 -3.625 6.921875 -3.984375 C 6.78125 -4.140625 6.453125 -4.34375 5.890625 -4.34375 C 5.0625 -4.34375 4.625 -3.75 4.46875 -3.375 C 4.328125 -4.234375 3.59375 -4.34375 3.15625 -4.34375 C 2.4375 -4.34375 1.96875 -3.921875 1.703125 -3.3125 L 1.703125 -4.34375 L 0.3125 -4.234375 L 0.3125 -3.9375 C 1 -3.9375 1.078125 -3.859375 1.078125 -3.375 Z M 1.078125 -3.375 "/>
</g>
<g id="glyph-0-10">
<path d="M 1.15625 -2.140625 C 1.15625 -3.75 1.953125 -4.15625 2.484375 -4.15625 C 2.5625 -4.15625 3.1875 -4.140625 3.53125 -3.796875 C 3.125 -3.765625 3.0625 -3.46875 3.0625 -3.34375 C 3.0625 -3.09375 3.25 -2.890625 3.515625 -2.890625 C 3.78125 -2.890625 3.96875 -3.0625 3.96875 -3.34375 C 3.96875 -4.015625 3.21875 -4.40625 2.46875 -4.40625 C 1.234375 -4.40625 0.328125 -3.34375 0.328125 -2.125 C 0.328125 -0.859375 1.3125 0.109375 2.453125 0.109375 C 3.765625 0.109375 4.078125 -1.078125 4.078125 -1.171875 C 4.078125 -1.265625 3.984375 -1.265625 3.953125 -1.265625 C 3.859375 -1.265625 3.84375 -1.234375 3.828125 -1.171875 C 3.53125 -0.25 2.90625 -0.140625 2.53125 -0.140625 C 2.015625 -0.140625 1.15625 -0.5625 1.15625 -2.140625 Z M 1.15625 -2.140625 "/>
</g>
<g id="glyph-0-11">
<path d="M 4.09375 -3.265625 C 4.171875 -3.5 4.34375 -3.921875 5 -3.9375 L 5 -4.234375 C 4.765625 -4.21875 4.484375 -4.203125 4.25 -4.203125 C 4.015625 -4.203125 3.5625 -4.21875 3.40625 -4.234375 L 3.40625 -3.9375 C 3.765625 -3.921875 3.875 -3.703125 3.875 -3.515625 C 3.875 -3.421875 3.859375 -3.375 3.8125 -3.265625 L 2.8125 -0.765625 L 1.703125 -3.515625 C 1.65625 -3.640625 1.65625 -3.65625 1.65625 -3.671875 C 1.65625 -3.9375 2.03125 -3.9375 2.21875 -3.9375 L 2.21875 -4.234375 C 1.921875 -4.21875 1.359375 -4.203125 1.140625 -4.203125 C 0.875 -4.203125 0.484375 -4.21875 0.1875 -4.234375 L 0.1875 -3.9375 C 0.8125 -3.9375 0.84375 -3.875 0.96875 -3.5625 L 2.390625 -0.078125 C 2.453125 0.0625 2.46875 0.109375 2.59375 0.109375 C 2.71875 0.109375 2.765625 0.015625 2.796875 -0.078125 Z M 4.09375 -3.265625 "/>
</g>
<g id="glyph-0-12">
<path d="M 2.046875 -1.90625 C 2.265625 -1.875 3.0625 -1.703125 3.0625 -1 C 3.0625 -0.5 2.71875 -0.109375 1.953125 -0.109375 C 1.125 -0.109375 0.78125 -0.671875 0.59375 -1.5 C 0.5625 -1.625 0.546875 -1.671875 0.453125 -1.671875 C 0.328125 -1.671875 0.328125 -1.609375 0.328125 -1.421875 L 0.328125 -0.125 C 0.328125 0.046875 0.328125 0.109375 0.4375 0.109375 C 0.484375 0.109375 0.484375 0.09375 0.671875 -0.09375 C 0.703125 -0.109375 0.703125 -0.125 0.875 -0.3125 C 1.3125 0.09375 1.75 0.109375 1.953125 0.109375 C 3.09375 0.109375 3.53125 -0.546875 3.53125 -1.265625 C 3.53125 -1.78125 3.25 -2.078125 3.125 -2.1875 C 2.796875 -2.5 2.421875 -2.578125 2 -2.65625 C 1.453125 -2.765625 0.796875 -2.90625 0.796875 -3.46875 C 0.796875 -3.8125 1.046875 -4.21875 1.890625 -4.21875 C 2.984375 -4.21875 3.03125 -3.328125 3.046875 -3.03125 C 3.0625 -2.9375 3.140625 -2.9375 3.171875 -2.9375 C 3.296875 -2.9375 3.296875 -2.984375 3.296875 -3.171875 L 3.296875 -4.171875 C 3.296875 -4.328125 3.296875 -4.40625 3.1875 -4.40625 C 3.140625 -4.40625 3.109375 -4.40625 2.984375 -4.28125 C 2.953125 -4.25 2.859375 -4.15625 2.828125 -4.125 C 2.453125 -4.40625 2.046875 -4.40625 1.890625 -4.40625 C 0.703125 -4.40625 0.328125 -3.75 0.328125 -3.1875 C 0.328125 -2.84375 0.484375 -2.578125 0.75 -2.359375 C 1.0625 -2.109375 1.34375 -2.046875 2.046875 -1.90625 Z M 2.046875 -1.90625 "/>
</g>
<g id="glyph-0-13">
<path d="M 1.734375 -4.34375 L 0.359375 -4.234375 L 0.359375 -3.9375 C 1 -3.9375 1.09375 -3.875 1.09375 -3.390625 L 1.09375 -0.75 C 1.09375 -0.296875 0.984375 -0.296875 0.328125 -0.296875 L 0.328125 0 C 0.640625 -0.015625 1.171875 -0.03125 1.40625 -0.03125 C 1.75 -0.03125 2.09375 -0.015625 2.421875 0 L 2.421875 -0.296875 C 1.78125 -0.296875 1.734375 -0.359375 1.734375 -0.734375 Z M 1.78125 -6.046875 C 1.78125 -6.375 1.53125 -6.578125 1.265625 -6.578125 C 0.953125 -6.578125 0.734375 -6.3125 0.734375 -6.046875 C 0.734375 -5.78125 0.953125 -5.53125 1.265625 -5.53125 C 1.53125 -5.53125 1.78125 -5.734375 1.78125 -6.046875 Z M 1.78125 -6.046875 "/>
</g>
<g id="glyph-0-14">
<path d="M 3.265625 -0.75 C 3.3125 -0.359375 3.578125 0.0625 4.046875 0.0625 C 4.25 0.0625 4.84375 -0.078125 4.84375 -0.875 L 4.84375 -1.421875 L 4.59375 -1.421875 L 4.59375 -0.875 C 4.59375 -0.296875 4.359375 -0.25 4.25 -0.25 C 3.921875 -0.25 3.875 -0.6875 3.875 -0.734375 L 3.875 -2.703125 C 3.875 -3.109375 3.875 -3.5 3.53125 -3.859375 C 3.140625 -4.25 2.65625 -4.40625 2.1875 -4.40625 C 1.375 -4.40625 0.703125 -3.9375 0.703125 -3.296875 C 0.703125 -3 0.890625 -2.828125 1.15625 -2.828125 C 1.421875 -2.828125 1.609375 -3.03125 1.609375 -3.28125 C 1.609375 -3.40625 1.546875 -3.71875 1.09375 -3.734375 C 1.359375 -4.078125 1.84375 -4.1875 2.15625 -4.1875 C 2.640625 -4.1875 3.203125 -3.796875 3.203125 -2.921875 L 3.203125 -2.5625 C 2.703125 -2.53125 2.015625 -2.5 1.390625 -2.21875 C 0.65625 -1.875 0.40625 -1.359375 0.40625 -0.9375 C 0.40625 -0.140625 1.359375 0.109375 1.984375 0.109375 C 2.640625 0.109375 3.09375 -0.28125 3.265625 -0.75 Z M 3.203125 -2.359375 L 3.203125 -1.375 C 3.203125 -0.4375 2.5 -0.109375 2.046875 -0.109375 C 1.578125 -0.109375 1.171875 -0.453125 1.171875 -0.9375 C 1.171875 -1.484375 1.578125 -2.296875 3.203125 -2.359375 Z M 3.203125 -2.359375 "/>
</g>
<g id="glyph-0-15">
<path d="M 0.34375 -6.71875 L 0.34375 -6.40625 L 0.578125 -6.40625 C 1.34375 -6.40625 1.359375 -6.296875 1.359375 -5.953125 L 1.359375 -0.765625 C 1.359375 -0.40625 1.34375 -0.296875 0.578125 -0.296875 L 0.34375 -0.296875 L 0.34375 0 L 3.9375 0 C 5.59375 0 6.953125 -1.453125 6.953125 -3.296875 C 6.953125 -5.171875 5.625 -6.71875 3.9375 -6.71875 Z M 2.6875 -0.296875 C 2.21875 -0.296875 2.203125 -0.375 2.203125 -0.703125 L 2.203125 -6.015625 C 2.203125 -6.34375 2.21875 -6.40625 2.6875 -6.40625 L 3.671875 -6.40625 C 4.28125 -6.40625 4.953125 -6.1875 5.453125 -5.5 C 5.875 -4.90625 5.96875 -4.0625 5.96875 -3.296875 C 5.96875 -2.21875 5.78125 -1.625 5.421875 -1.140625 C 5.234375 -0.875 4.671875 -0.296875 3.671875 -0.296875 Z M 2.6875 -0.296875 "/>
</g>
<g id="glyph-0-16">
<path d="M 3.734375 -0.546875 L 3.734375 0.109375 L 5.171875 0 L 5.171875 -0.296875 C 4.484375 -0.296875 4.40625 -0.375 4.40625 -0.859375 L 4.40625 -6.828125 L 3 -6.71875 L 3 -6.40625 C 3.6875 -6.40625 3.765625 -6.34375 3.765625 -5.859375 L 3.765625 -3.734375 C 3.484375 -4.09375 3.0625 -4.34375 2.53125 -4.34375 C 1.359375 -4.34375 0.328125 -3.375 0.328125 -2.109375 C 0.328125 -0.859375 1.296875 0.109375 2.421875 0.109375 C 3.046875 0.109375 3.484375 -0.21875 3.734375 -0.546875 Z M 3.734375 -3.171875 L 3.734375 -1.15625 C 3.734375 -0.984375 3.734375 -0.96875 3.625 -0.796875 C 3.328125 -0.328125 2.890625 -0.109375 2.46875 -0.109375 C 2.03125 -0.109375 1.671875 -0.359375 1.4375 -0.734375 C 1.171875 -1.140625 1.15625 -1.703125 1.15625 -2.109375 C 1.15625 -2.46875 1.171875 -3.0625 1.453125 -3.5 C 1.65625 -3.796875 2.03125 -4.125 2.5625 -4.125 C 2.90625 -4.125 3.328125 -3.984375 3.625 -3.53125 C 3.734375 -3.375 3.734375 -3.34375 3.734375 -3.171875 Z M 3.734375 -3.171875 "/>
</g>
</g>
<clipPath id="clip-0">
<path clip-rule="nonzero" d="M 1.960938 3 L 47 3 L 47 38 L 1.960938 38 Z M 1.960938 3 "/>
</clipPath>
<clipPath id="clip-1">
<path clip-rule="nonzero" d="M 93 0 L 207 0 L 207 40.851562 L 93 40.851562 Z M 93 0 "/>
</clipPath>
<clipPath id="clip-2">
<path clip-rule="nonzero" d="M 233 3 L 318.058594 3 L 318.058594 38 L 233 38 Z M 233 3 "/>
</clipPath>
</defs>
<g clip-path="url(#clip-0)">
<path fill="none" stroke-width="0.79701" stroke-linecap="butt" stroke-linejoin="miter" stroke="rgb(0%, 0%, 0%)" stroke-opacity="1" stroke-miterlimit="10" d="M -21.999824 -17.007294 L 22.000232 -17.007294 L 22.000232 17.007692 L -21.999824 17.007692 Z M -21.999824 -17.007294 " transform="matrix(0.986238, 0, 0, -0.986238, 24.052533, 20.425977)"/>
</g>
<g fill="rgb(0%, 0%, 0%)" fill-opacity="1">
<use xlink:href="#glyph-0-0" x="12.180199" y="22.827467"/>
<use xlink:href="#glyph-0-1" x="15.728185" y="22.827467"/>
<use xlink:href="#glyph-0-2" x="21.18723" y="22.827467"/>
<use xlink:href="#glyph-0-3" x="26.646276" y="22.827467"/>
<use xlink:href="#glyph-0-4" x="32.105321" y="22.827467"/>
</g>
<g clip-path="url(#clip-1)">
<path fill="none" stroke-width="0.79701" stroke-linecap="butt" stroke-linejoin="miter" stroke="rgb(0%, 0%, 0%)" stroke-opacity="1" stroke-miterlimit="10" d="M 70.745276 -20.314527 L 184.37545 -20.314527 L 184.37545 20.314924 L 70.745276 20.314924 Z M 70.745276 -20.314527 " transform="matrix(0.986238, 0, 0, -0.986238, 24.052533, 20.425977)"/>
</g>
<g fill="rgb(0%, 0%, 0%)" fill-opacity="1">
<use xlink:href="#glyph-0-5" x="122.808498" y="16.932722"/>
<use xlink:href="#glyph-0-1" x="130.450769" y="16.932722"/>
<use xlink:href="#glyph-0-6" x="135.909814" y="16.932722"/>
</g>
<g fill="rgb(0%, 0%, 0%)" fill-opacity="1">
<use xlink:href="#glyph-0-7" x="143.548154" y="16.932722"/>
<use xlink:href="#glyph-0-8" x="148.460902" y="16.932722"/>
</g>
<g fill="rgb(0%, 0%, 0%)" fill-opacity="1">
<use xlink:href="#glyph-0-9" x="155.591264" y="16.932722"/>
<use xlink:href="#glyph-0-7" x="163.77885" y="16.932722"/>
<use xlink:href="#glyph-0-8" x="168.691598" y="16.932722"/>
<use xlink:href="#glyph-0-6" x="172.540244" y="16.932722"/>
</g>
<g fill="rgb(0%, 0%, 0%)" fill-opacity="1">
<use xlink:href="#glyph-0-10" x="103.648851" y="28.723198"/>
<use xlink:href="#glyph-0-7" x="108.015301" y="28.723198"/>
<use xlink:href="#glyph-0-1" x="112.928049" y="28.723198"/>
</g>
<g fill="rgb(0%, 0%, 0%)" fill-opacity="1">
<use xlink:href="#glyph-0-11" x="118.11198" y="28.723198"/>
</g>
<g fill="rgb(0%, 0%, 0%)" fill-opacity="1">
<use xlink:href="#glyph-0-6" x="123.022763" y="28.723198"/>
<use xlink:href="#glyph-0-8" x="127.389213" y="28.723198"/>
<use xlink:href="#glyph-0-12" x="131.23786" y="28.723198"/>
</g>
<g fill="rgb(0%, 0%, 0%)" fill-opacity="1">
<use xlink:href="#glyph-0-13" x="135.122861" y="28.723198"/>
</g>
<g fill="rgb(0%, 0%, 0%)" fill-opacity="1">
<use xlink:href="#glyph-0-7" x="137.842558" y="28.723198"/>
<use xlink:href="#glyph-0-1" x="142.755306" y="28.723198"/>
</g>
<g fill="rgb(0%, 0%, 0%)" fill-opacity="1">
<use xlink:href="#glyph-0-7" x="151.496067" y="28.723198"/>
<use xlink:href="#glyph-0-2" x="156.408815" y="28.723198"/>
</g>
<g fill="rgb(0%, 0%, 0%)" fill-opacity="1">
<use xlink:href="#glyph-0-6" x="162.142974" y="28.723198"/>
<use xlink:href="#glyph-0-8" x="166.509424" y="28.723198"/>
<use xlink:href="#glyph-0-14" x="170.358071" y="28.723198"/>
<use xlink:href="#glyph-0-4" x="175.270819" y="28.723198"/>
<use xlink:href="#glyph-0-13" x="179.091954" y="28.723198"/>
<use xlink:href="#glyph-0-7" x="181.821477" y="28.723198"/>
<use xlink:href="#glyph-0-1" x="186.734225" y="28.723198"/>
</g>
<g fill="rgb(0%, 0%, 0%)" fill-opacity="1">
<use xlink:href="#glyph-0-12" x="192.183444" y="28.723198"/>
</g>
<g clip-path="url(#clip-2)">
<path fill="none" stroke-width="0.79701" stroke-linecap="butt" stroke-linejoin="miter" stroke="rgb(0%, 0%, 0%)" stroke-opacity="1" stroke-miterlimit="10" d="M 212.528514 -17.007294 L 297.712527 -17.007294 L 297.712527 17.007692 L 212.528514 17.007692 Z M 212.528514 -17.007294 " transform="matrix(0.986238, 0, 0, -0.986238, 24.052533, 20.425977)"/>
</g>
<g fill="rgb(0%, 0%, 0%)" fill-opacity="1">
<use xlink:href="#glyph-0-15" x="243.481633" y="22.88171"/>
<use xlink:href="#glyph-0-6" x="250.987329" y="22.88171"/>
<use xlink:href="#glyph-0-12" x="255.353779" y="22.88171"/>
<use xlink:href="#glyph-0-13" x="259.228955" y="22.88171"/>
<use xlink:href="#glyph-0-8" x="261.958477" y="22.88171"/>
<use xlink:href="#glyph-0-6" x="265.807124" y="22.88171"/>
<use xlink:href="#glyph-0-16" x="270.173574" y="22.88171"/>
</g>
<g fill="rgb(0%, 0%, 0%)" fill-opacity="1">
<use xlink:href="#glyph-0-7" x="278.90451" y="22.88171"/>
<use xlink:href="#glyph-0-3" x="283.817258" y="22.88171"/>
<use xlink:href="#glyph-0-4" x="289.276303" y="22.88171"/>
<use xlink:href="#glyph-0-2" x="293.097438" y="22.88171"/>
<use xlink:href="#glyph-0-3" x="298.556484" y="22.88171"/>
<use xlink:href="#glyph-0-4" x="304.015529" y="22.88171"/>
</g>
<path fill="none" stroke-width="1.19553" stroke-linecap="butt" stroke-linejoin="miter" stroke="rgb(0%, 0%, 0%)" stroke-opacity="1" stroke-miterlimit="10" d="M 30.904015 0.000198675 L 58.653083 0.000198675 " transform="matrix(0.986238, 0, 0, -0.986238, 24.052533, 20.425977)"/>
<path fill-rule="nonzero" fill="rgb(0%, 0%, 0%)" fill-opacity="1" d="M 85.042969 20.425781 L 80.011719 17.910156 L 81.898438 20.425781 L 80.011719 22.941406 "/>
<path fill="none" stroke-width="1.19553" stroke-linecap="butt" stroke-linejoin="miter" stroke="rgb(0%, 0%, 0%)" stroke-opacity="1" stroke-miterlimit="10" d="M 193.279233 0.000198675 L 200.440282 0.000198675 " transform="matrix(0.986238, 0, 0, -0.986238, 24.052533, 20.425977)"/>
<path fill-rule="nonzero" fill="rgb(0%, 0%, 0%)" fill-opacity="1" d="M 224.878906 20.425781 L 219.847656 17.910156 L 221.734375 20.425781 L 219.847656 22.941406 "/>
</svg>
