<?xml version="1.0" encoding="UTF-8"?>
<svg xmlns="http://www.w3.org/2000/svg" xmlns:xlink="http://www.w3.org/1999/xlink" width="255.915pt" height="118.031pt" viewBox="0 0 255.915 118.031">
<defs>
<g>
<g id="glyph-0-0">
<path d="M 3.90625 -3.75 C 3.75 -3.75 3.609375 -3.75 3.46875 -3.609375 C 3.3125 -3.46875 3.296875 -3.296875 3.296875 -3.234375 C 3.296875 -2.984375 3.46875 -2.890625 3.65625 -2.890625 C 3.953125 -2.890625 4.21875 -3.125 4.21875 -3.515625 C 4.21875 -4 3.75 -4.359375 3.046875 -4.359375 C 1.71875 -4.359375 0.40625 -2.953125 0.40625 -1.5625 C 0.40625 -0.671875 0.984375 0.109375 2 0.109375 C 3.421875 0.109375 4.25 -0.9375 4.25 -1.0625 C 4.25 -1.109375 4.1875 -1.1875 4.125 -1.1875 C 4.078125 -1.1875 4.0625 -1.171875 4 -1.09375 C 3.21875 -0.109375 2.140625 -0.109375 2.03125 -0.109375 C 1.40625 -0.109375 1.140625 -0.59375 1.140625 -1.1875 C 1.140625 -1.59375 1.328125 -2.546875 1.671875 -3.15625 C 1.96875 -3.71875 2.515625 -4.140625 3.0625 -4.140625 C 3.390625 -4.140625 3.765625 -4.015625 3.90625 -3.75 Z M 3.90625 -3.75 "/>
</g>
<g id="glyph-0-1">
<path d="M 6.203125 -5.625 C 6.6875 -6.390625 7.09375 -6.421875 7.46875 -6.4375 C 7.578125 -6.453125 7.59375 -6.609375 7.59375 -6.625 C 7.59375 -6.703125 7.546875 -6.75 7.46875 -6.75 C 7.203125 -6.75 6.921875 -6.71875 6.65625 -6.71875 C 6.328125 -6.71875 6 -6.75 5.671875 -6.75 C 5.625 -6.75 5.484375 -6.75 5.484375 -6.5625 C 5.484375 -6.453125 5.578125 -6.4375 5.65625 -6.4375 C 5.921875 -6.421875 6.109375 -6.3125 6.109375 -6.109375 C 6.109375 -5.96875 5.953125 -5.75 5.953125 -5.734375 L 2.921875 -0.921875 L 2.25 -6.140625 C 2.25 -6.3125 2.484375 -6.4375 2.9375 -6.4375 C 3.078125 -6.4375 3.1875 -6.4375 3.1875 -6.640625 C 3.1875 -6.71875 3.09375 -6.75 3.046875 -6.75 C 2.640625 -6.75 2.21875 -6.71875 1.8125 -6.71875 C 1.640625 -6.71875 1.453125 -6.71875 1.28125 -6.71875 C 1.09375 -6.71875 0.90625 -6.75 0.734375 -6.75 C 0.671875 -6.75 0.546875 -6.75 0.546875 -6.5625 C 0.546875 -6.4375 0.640625 -6.4375 0.796875 -6.4375 C 1.359375 -6.4375 1.359375 -6.34375 1.390625 -6.109375 L 2.171875 -0.015625 C 2.203125 0.1875 2.234375 0.21875 2.375 0.21875 C 2.53125 0.21875 2.5625 0.171875 2.640625 0.046875 Z M 6.203125 -5.625 "/>
</g>
<g id="glyph-1-0">
<path d="M 2.3125 -4.40625 C 2.3125 -4.59375 2.3125 -4.59375 2.109375 -4.59375 C 1.671875 -4.15625 1.03125 -4.15625 0.75 -4.15625 L 0.75 -3.90625 C 0.921875 -3.90625 1.375 -3.90625 1.765625 -4.09375 L 1.765625 -0.5625 C 1.765625 -0.34375 1.765625 -0.25 1.0625 -0.25 L 0.796875 -0.25 L 0.796875 0 C 0.921875 0 1.78125 -0.03125 2.03125 -0.03125 C 2.25 -0.03125 3.125 0 3.28125 0 L 3.28125 -0.25 L 3.015625 -0.25 C 2.3125 -0.25 2.3125 -0.34375 2.3125 -0.5625 Z M 2.3125 -4.40625 "/>
</g>
<g id="glyph-1-1">
<path d="M 3.5 -1.265625 L 3.265625 -1.265625 C 3.234375 -1.109375 3.171875 -0.703125 3.078125 -0.625 C 3.03125 -0.59375 2.484375 -0.59375 2.390625 -0.59375 L 1.125 -0.59375 C 1.84375 -1.234375 2.09375 -1.421875 2.5 -1.75 C 3.015625 -2.15625 3.5 -2.59375 3.5 -3.25 C 3.5 -4.078125 2.765625 -4.59375 1.875 -4.59375 C 1.015625 -4.59375 0.4375 -4 0.4375 -3.359375 C 0.4375 -3 0.734375 -2.96875 0.796875 -2.96875 C 0.96875 -2.96875 1.171875 -3.09375 1.171875 -3.34375 C 1.171875 -3.453125 1.125 -3.703125 0.765625 -3.703125 C 0.96875 -4.1875 1.453125 -4.34375 1.765625 -4.34375 C 2.46875 -4.34375 2.828125 -3.8125 2.828125 -3.25 C 2.828125 -2.640625 2.390625 -2.171875 2.171875 -1.921875 L 0.5 -0.265625 C 0.4375 -0.203125 0.4375 -0.1875 0.4375 0 L 3.28125 0 Z M 3.5 -1.265625 "/>
</g>
<g id="glyph-2-0">
<path d="M 2 -0.015625 C 2 -0.640625 1.765625 -1.046875 1.375 -1.046875 C 1.03125 -1.046875 0.84375 -0.78125 0.84375 -0.515625 C 0.84375 -0.265625 1.015625 0 1.375 0 C 1.53125 0 1.65625 -0.0625 1.75 -0.140625 L 1.765625 -0.15625 C 1.78125 -0.15625 1.78125 -0.140625 1.78125 -0.015625 C 1.78125 0.625 1.515625 1.21875 1.078125 1.6875 C 1.015625 1.75 1 1.75 1 1.796875 C 1 1.859375 1.0625 1.90625 1.109375 1.90625 C 1.21875 1.90625 2 1.125 2 -0.015625 Z M 2 -0.015625 "/>
</g>
<g id="glyph-3-0">
<path d="M 3.046875 -0.640625 C 3.078125 -0.265625 3.34375 0.046875 3.71875 0.046875 C 3.953125 0.046875 4.5 -0.078125 4.5 -0.796875 L 4.5 -1.296875 L 4.265625 -1.296875 L 4.265625 -0.796875 C 4.265625 -0.703125 4.265625 -0.265625 3.9375 -0.265625 C 3.625 -0.265625 3.625 -0.6875 3.625 -0.828125 L 3.625 -2.375 C 3.625 -2.890625 3.625 -3.1875 3.21875 -3.5625 C 2.890625 -3.84375 2.46875 -3.984375 2.015625 -3.984375 C 1.265625 -3.984375 0.65625 -3.609375 0.65625 -3.046875 C 0.65625 -2.765625 0.828125 -2.609375 1.0625 -2.609375 C 1.3125 -2.609375 1.46875 -2.796875 1.46875 -3.015625 C 1.46875 -3.40625 1.078125 -3.453125 1.078125 -3.453125 C 1.3125 -3.6875 1.75 -3.765625 2 -3.765625 C 2.453125 -3.765625 2.953125 -3.421875 2.953125 -2.640625 L 2.953125 -2.34375 C 2.484375 -2.328125 1.8125 -2.28125 1.21875 -2 C 0.578125 -1.6875 0.375 -1.234375 0.375 -0.875 C 0.375 -0.140625 1.25 0.09375 1.84375 0.09375 C 2.578125 0.09375 2.921875 -0.390625 3.046875 -0.640625 Z M 2.953125 -1.25 C 2.953125 -0.390625 2.296875 -0.125 1.90625 -0.125 C 1.484375 -0.125 1.09375 -0.421875 1.09375 -0.875 C 1.09375 -1.453125 1.59375 -2.078125 2.953125 -2.140625 Z M 2.953125 -1.25 "/>
</g>
<g id="glyph-3-1">
<path d="M 3.453125 -1.0625 C 3.453125 -0.90625 3.453125 -0.875 3.328125 -0.6875 C 3.046875 -0.296875 2.640625 -0.125 2.28125 -0.125 C 1.90625 -0.125 1.546875 -0.34375 1.3125 -0.71875 C 1.078125 -1.09375 1.0625 -1.625 1.0625 -1.90625 C 1.0625 -2.328125 1.125 -2.796875 1.34375 -3.140625 C 1.546875 -3.4375 1.90625 -3.703125 2.375 -3.703125 C 2.75 -3.703125 3.109375 -3.515625 3.359375 -3.1875 C 3.453125 -3.046875 3.453125 -3.03125 3.453125 -2.859375 Z M 3.484375 -3.40625 C 3.4375 -3.453125 3.046875 -3.921875 2.34375 -3.921875 C 1.25 -3.921875 0.296875 -3.0625 0.296875 -1.90625 C 0.296875 -0.796875 1.1875 0.09375 2.25 0.09375 C 2.890625 0.09375 3.296875 -0.28125 3.453125 -0.46875 L 3.453125 0.09375 L 4.796875 0 L 4.796875 -0.28125 C 4.203125 -0.28125 4.109375 -0.34375 4.109375 -0.78125 L 4.109375 -6.171875 L 2.796875 -6.078125 L 2.796875 -5.796875 C 3.40625 -5.796875 3.484375 -5.734375 3.484375 -5.296875 Z M 3.484375 -3.40625 "/>
</g>
<g id="glyph-3-2">
<path d="M 5.65625 -2.96875 C 5.859375 -3.515625 6.21875 -3.546875 6.40625 -3.5625 L 6.40625 -3.828125 C 6.046875 -3.8125 6.03125 -3.8125 5.75 -3.8125 C 5.40625 -3.8125 5.28125 -3.8125 4.921875 -3.828125 L 4.921875 -3.5625 C 5.3125 -3.546875 5.4375 -3.3125 5.4375 -3.125 C 5.4375 -3.046875 5.421875 -2.984375 5.390625 -2.921875 L 4.5625 -0.703125 L 3.671875 -3.140625 C 3.625 -3.25 3.625 -3.28125 3.625 -3.3125 C 3.625 -3.53125 3.90625 -3.5625 4.140625 -3.5625 L 4.140625 -3.828125 C 3.71875 -3.8125 3.359375 -3.8125 3.21875 -3.8125 C 2.9375 -3.8125 2.6875 -3.8125 2.40625 -3.828125 L 2.40625 -3.5625 C 2.6875 -3.5625 2.859375 -3.546875 2.953125 -3.421875 C 3.046875 -3.328125 3.15625 -2.96875 3.15625 -2.9375 C 3.15625 -2.921875 3.109375 -2.828125 3.109375 -2.8125 L 2.375 -0.8125 L 1.53125 -3.125 C 1.484375 -3.265625 1.484375 -3.28125 1.484375 -3.3125 C 1.484375 -3.5625 1.828125 -3.5625 2 -3.5625 L 2 -3.828125 C 1.59375 -3.8125 1.390625 -3.8125 1.03125 -3.8125 C 0.734375 -3.8125 0.484375 -3.8125 0.171875 -3.828125 L 0.171875 -3.5625 C 0.609375 -3.5625 0.71875 -3.53125 0.828125 -3.234375 L 1.96875 -0.09375 C 2.015625 0.015625 2.046875 0.09375 2.171875 0.09375 C 2.3125 0.09375 2.34375 0 2.375 -0.09375 L 3.296875 -2.578125 L 4.203125 -0.09375 C 4.234375 0 4.28125 0.09375 4.40625 0.09375 C 4.546875 0.09375 4.5625 0.015625 4.609375 -0.078125 Z M 5.65625 -2.96875 "/>
</g>
<g id="glyph-3-3">
<path d="M 2.890625 -3.5625 L 2.890625 -3.828125 L 1.59375 -3.828125 L 1.59375 -5.46875 L 1.34375 -5.46875 C 1.34375 -4.71875 1.03125 -3.8125 0.171875 -3.78125 L 0.171875 -3.5625 L 0.9375 -3.5625 L 0.9375 -1.109375 C 0.9375 -0.109375 1.65625 0.09375 2.140625 0.09375 C 2.734375 0.09375 3.046875 -0.46875 3.046875 -1.109375 L 3.046875 -1.609375 L 2.796875 -1.609375 L 2.796875 -1.125 C 2.796875 -0.46875 2.515625 -0.15625 2.203125 -0.15625 C 1.59375 -0.15625 1.59375 -0.9375 1.59375 -1.09375 L 1.59375 -3.5625 Z M 2.890625 -3.5625 "/>
</g>
<g id="glyph-3-4">
<path d="M 3.5625 -2.03125 C 3.75 -2.03125 3.796875 -2.03125 3.796875 -2.21875 C 3.796875 -3.140625 3.296875 -3.984375 2.15625 -3.984375 C 1.09375 -3.984375 0.265625 -3.0625 0.265625 -1.953125 C 0.265625 -0.796875 1.1875 0.09375 2.28125 0.09375 C 3.359375 0.09375 3.796875 -0.859375 3.796875 -1.0625 C 3.796875 -1.125 3.75 -1.171875 3.671875 -1.171875 C 3.578125 -1.171875 3.5625 -1.109375 3.546875 -1.078125 C 3.25 -0.171875 2.453125 -0.15625 2.328125 -0.15625 C 1.890625 -0.15625 1.53125 -0.390625 1.328125 -0.6875 C 1.03125 -1.125 1.015625 -1.65625 1.015625 -2.03125 Z M 1.03125 -2.25 C 1.109375 -3.625 1.90625 -3.765625 2.15625 -3.765625 C 2.65625 -3.765625 3.1875 -3.390625 3.1875 -2.25 Z M 1.03125 -2.25 "/>
</g>
<g id="glyph-3-5">
<path d="M 1.578125 -2.03125 C 1.578125 -2.40625 1.6875 -3.703125 2.6875 -3.703125 C 2.671875 -3.6875 2.53125 -3.578125 2.53125 -3.375 C 2.53125 -3.125 2.71875 -2.984375 2.921875 -2.984375 C 3.109375 -2.984375 3.3125 -3.109375 3.3125 -3.375 C 3.3125 -3.65625 3.046875 -3.921875 2.65625 -3.921875 C 2.109375 -3.921875 1.75 -3.5625 1.53125 -3 L 1.53125 -3.921875 L 0.265625 -3.828125 L 0.265625 -3.5625 C 0.875 -3.5625 0.953125 -3.5 0.953125 -3.0625 L 0.953125 -0.6875 C 0.953125 -0.28125 0.859375 -0.28125 0.265625 -0.28125 L 0.265625 0 C 0.734375 -0.015625 0.859375 -0.03125 1.3125 -0.03125 C 1.65625 -0.03125 1.875 -0.015625 2.4375 0 L 2.4375 -0.28125 L 2.265625 -0.28125 C 1.609375 -0.28125 1.578125 -0.375 1.578125 -0.703125 Z M 1.578125 -2.03125 "/>
</g>
</g>
<clipPath id="clip-0">
<path clip-rule="nonzero" d="M 141 8 L 254.832031 8 L 254.832031 99 L 141 99 Z M 141 8 "/>
</clipPath>
<clipPath id="clip-1">
<path clip-rule="nonzero" d="M 141 0 L 254.832031 0 L 254.832031 100 L 141 100 Z M 141 0 "/>
</clipPath>
</defs>
<path fill-rule="nonzero" fill="rgb(79.998779%, 79.998779%, 100%)" fill-opacity="1" d="M 1.394531 98.800781 L 1.394531 53.8125 L 57.625 53.8125 L 57.625 98.800781 Z M 1.394531 98.800781 "/>
<path fill="none" stroke-width="0.79701" stroke-linecap="butt" stroke-linejoin="miter" stroke="rgb(0%, 0%, 0%)" stroke-opacity="1" stroke-miterlimit="10" d="M -0.0000137189 53.859546 L -0.0000137189 -0.000906777 L 56.692091 -0.000906777 L 56.692091 53.859546 " transform="matrix(0.991857, 0, 0, -0.991857, 1.394545, 98.799882)"/>
<path fill-rule="nonzero" fill="rgb(69.999695%, 0%, 0%)" fill-opacity="1" d="M 17.703125 87.554688 C 17.703125 86.3125 16.695312 85.304688 15.453125 85.304688 C 14.210938 85.304688 13.203125 86.3125 13.203125 87.554688 C 13.203125 88.796875 14.210938 89.804688 15.453125 89.804688 C 16.695312 89.804688 17.703125 88.796875 17.703125 87.554688 Z M 17.703125 87.554688 "/>
<path fill-rule="nonzero" fill="rgb(69.999695%, 0%, 0%)" fill-opacity="1" d="M 43.007812 84.742188 C 43.007812 83.5 42 82.492188 40.757812 82.492188 C 39.515625 82.492188 38.507812 83.5 38.507812 84.742188 C 38.507812 85.984375 39.515625 86.992188 40.757812 86.992188 C 42 86.992188 43.007812 85.984375 43.007812 84.742188 Z M 43.007812 84.742188 "/>
<path fill-rule="nonzero" fill="rgb(69.999695%, 0%, 0%)" fill-opacity="1" d="M 28.949219 73.496094 C 28.949219 72.253906 27.941406 71.246094 26.699219 71.246094 C 25.457031 71.246094 24.449219 72.253906 24.449219 73.496094 C 24.449219 74.738281 25.457031 75.746094 26.699219 75.746094 C 27.941406 75.746094 28.949219 74.738281 28.949219 73.496094 Z M 28.949219 73.496094 "/>
<path fill-rule="nonzero" fill="rgb(69.999695%, 0%, 0%)" fill-opacity="1" d="M 14.890625 65.0625 C 14.890625 63.820312 13.882812 62.8125 12.640625 62.8125 C 11.398438 62.8125 10.390625 63.820312 10.390625 65.0625 C 10.390625 66.304688 11.398438 67.308594 12.640625 67.308594 C 13.882812 67.308594 14.890625 66.304688 14.890625 65.0625 Z M 14.890625 65.0625 "/>
<path fill-rule="nonzero" fill="rgb(69.999695%, 0%, 0%)" fill-opacity="1" d="M 45.816406 67.871094 C 45.816406 66.628906 44.8125 65.621094 43.570312 65.621094 C 42.328125 65.621094 41.320312 66.628906 41.320312 67.871094 C 41.320312 69.113281 42.328125 70.121094 43.570312 70.121094 C 44.8125 70.121094 45.816406 69.113281 45.816406 67.871094 Z M 45.816406 67.871094 "/>
<path fill-rule="nonzero" fill="rgb(69.999695%, 0%, 0%)" fill-opacity="1" d="M 31.761719 90.363281 C 31.761719 89.121094 30.753906 88.117188 29.511719 88.117188 C 28.269531 88.117188 27.261719 89.121094 27.261719 90.363281 C 27.261719 91.605469 28.269531 92.613281 29.511719 92.613281 C 30.753906 92.613281 31.761719 91.605469 31.761719 90.363281 Z M 31.761719 90.363281 "/>
<g fill="rgb(0%, 0%, 0%)" fill-opacity="1">
<use xlink:href="#glyph-0-0" x="17.038116" y="111.854706"/>
</g>
<g fill="rgb(0%, 0%, 0%)" fill-opacity="1">
<use xlink:href="#glyph-1-0" x="21.314012" y="113.337532"/>
</g>
<g fill="rgb(0%, 0%, 0%)" fill-opacity="1">
<use xlink:href="#glyph-2-0" x="25.747613" y="111.854706"/>
</g>
<g fill="rgb(0%, 0%, 0%)" fill-opacity="1">
<use xlink:href="#glyph-0-1" x="31.783219" y="111.854706"/>
</g>
<g fill="rgb(0%, 0%, 0%)" fill-opacity="1">
<use xlink:href="#glyph-1-0" x="37.550713" y="113.337532"/>
</g>
<path fill="none" stroke-width="1.19553" stroke-linecap="butt" stroke-linejoin="miter" stroke="rgb(0%, 0%, 0%)" stroke-opacity="1" stroke-miterlimit="10" d="M 73.701691 22.675935 L 121.536516 22.675935 " transform="matrix(0.991857, 0, 0, -0.991857, 1.394545, 98.799882)"/>
<path fill-rule="nonzero" fill="rgb(0%, 0%, 0%)" fill-opacity="1" d="M 125.105469 76.308594 L 120.046875 73.777344 L 121.941406 76.308594 L 120.046875 78.835938 "/>
<g fill="rgb(0%, 0%, 0%)" fill-opacity="1">
<use xlink:href="#glyph-3-0" x="79.856396" y="72.420449"/>
<use xlink:href="#glyph-3-1" x="84.426708" y="72.420449"/>
<use xlink:href="#glyph-3-1" x="89.504833" y="72.420449"/>
</g>
<g fill="rgb(0%, 0%, 0%)" fill-opacity="1">
<use xlink:href="#glyph-3-2" x="97.633389" y="72.420449"/>
</g>
<g fill="rgb(0%, 0%, 0%)" fill-opacity="1">
<use xlink:href="#glyph-3-0" x="103.977043" y="72.420449"/>
<use xlink:href="#glyph-3-3" x="108.547355" y="72.420449"/>
<use xlink:href="#glyph-3-4" x="112.102042" y="72.420449"/>
<use xlink:href="#glyph-3-5" x="116.168099" y="72.420449"/>
</g>
<g clip-path="url(#clip-0)">
<path fill-rule="nonzero" fill="rgb(89.99939%, 89.99939%, 100%)" fill-opacity="1" d="M 141.972656 98.800781 L 141.972656 8.828125 L 254.4375 8.828125 L 254.4375 98.800781 Z M 141.972656 98.800781 "/>
</g>
<g clip-path="url(#clip-1)">
<path fill="none" stroke-width="0.79701" stroke-linecap="butt" stroke-linejoin="miter" stroke="rgb(0%, 0%, 0%)" stroke-opacity="1" stroke-miterlimit="10" d="M 141.732217 99.21323 L 141.732217 -0.000906777 L 255.120364 -0.000906777 L 255.120364 99.21323 " transform="matrix(0.991857, 0, 0, -0.991857, 1.394545, 98.799882)"/>
</g>
<path fill-rule="nonzero" fill="rgb(69.999695%, 0%, 0%)" fill-opacity="1" d="M 163.90625 81.929688 C 163.90625 80.6875 162.898438 79.679688 161.65625 79.679688 C 160.414062 79.679688 159.40625 80.6875 159.40625 81.929688 C 159.40625 83.171875 160.414062 84.179688 161.65625 84.179688 C 162.898438 84.179688 163.90625 83.171875 163.90625 81.929688 Z M 163.90625 81.929688 "/>
<path fill-rule="nonzero" fill="rgb(69.999695%, 0%, 0%)" fill-opacity="1" d="M 234.195312 76.308594 C 234.195312 75.066406 233.1875 74.058594 231.945312 74.058594 C 230.703125 74.058594 229.695312 75.066406 229.695312 76.308594 C 229.695312 77.550781 230.703125 78.554688 231.945312 78.554688 C 233.1875 78.554688 234.195312 77.550781 234.195312 76.308594 Z M 234.195312 76.308594 "/>
<path fill-rule="nonzero" fill="rgb(69.999695%, 0%, 0%)" fill-opacity="1" d="M 194.832031 53.8125 C 194.832031 52.570312 193.824219 51.566406 192.582031 51.566406 C 191.339844 51.566406 190.335938 52.570312 190.335938 53.8125 C 190.335938 55.054688 191.339844 56.0625 192.582031 56.0625 C 193.824219 56.0625 194.832031 55.054688 194.832031 53.8125 Z M 194.832031 53.8125 "/>
<path fill-rule="nonzero" fill="rgb(69.999695%, 0%, 0%)" fill-opacity="1" d="M 161.09375 28.511719 C 161.09375 27.269531 160.085938 26.261719 158.84375 26.261719 C 157.601562 26.261719 156.59375 27.269531 156.59375 28.511719 C 156.59375 29.753906 157.601562 30.757812 158.84375 30.757812 C 160.085938 30.757812 161.09375 29.753906 161.09375 28.511719 Z M 161.09375 28.511719 "/>
<path fill-rule="nonzero" fill="rgb(69.999695%, 0%, 0%)" fill-opacity="1" d="M 228.570312 31.320312 C 228.570312 30.078125 227.566406 29.074219 226.324219 29.074219 C 225.082031 29.074219 224.074219 30.078125 224.074219 31.320312 C 224.074219 32.5625 225.082031 33.570312 226.324219 33.570312 C 227.566406 33.570312 228.570312 32.5625 228.570312 31.320312 Z M 228.570312 31.320312 "/>
<path fill-rule="nonzero" fill="rgb(69.999695%, 0%, 0%)" fill-opacity="1" d="M 200.457031 84.742188 C 200.457031 83.5 199.449219 82.492188 198.207031 82.492188 C 196.964844 82.492188 195.957031 83.5 195.957031 84.742188 C 195.957031 85.984375 196.964844 86.992188 198.207031 86.992188 C 199.449219 86.992188 200.457031 85.984375 200.457031 84.742188 Z M 200.457031 84.742188 "/>
<g fill="rgb(0%, 0%, 0%)" fill-opacity="1">
<use xlink:href="#glyph-0-0" x="185.732187" y="111.854706"/>
</g>
<g fill="rgb(0%, 0%, 0%)" fill-opacity="1">
<use xlink:href="#glyph-1-1" x="190.008083" y="113.337532"/>
</g>
<g fill="rgb(0%, 0%, 0%)" fill-opacity="1">
<use xlink:href="#glyph-2-0" x="194.440692" y="111.854706"/>
</g>
<g fill="rgb(0%, 0%, 0%)" fill-opacity="1">
<use xlink:href="#glyph-0-1" x="200.476298" y="111.854706"/>
</g>
<g fill="rgb(0%, 0%, 0%)" fill-opacity="1">
<use xlink:href="#glyph-1-1" x="206.243792" y="113.337532"/>
</g>
</svg>
